<svg width="512" height="512" viewBox="0 0 512 512" fill="none" xmlns="http://www.w3.org/2000/svg">
<g clip-path="url(#clip0)">
<rect width="512" height="512" fill="#34D399"/>
<path d="M383.625 256.088C383.456 249.411 383.271 243.106 383.271 236.829V120.32H143.037L189.64 145.651H358.045V236.825C358.045 243.457 358.23 250.231 358.411 256.77C359.079 281.604 359.766 307.282 350.548 328.765C334.597 365.924 298.258 389.946 258.018 389.946C208.998 389.946 168.062 358.331 156.152 311.274C152.605 297.222 153.072 282.714 153.578 267.33C153.747 261.905 153.916 256.302 153.916 250.675V190.253L128.69 176.859V250.683C128.69 255.898 128.505 261.299 128.352 266.515C127.817 282.965 127.279 299.983 131.703 317.515C146.48 375.983 197.269 415.277 258.014 415.277C308.353 415.277 353.77 385.252 373.707 338.789C385.149 312.191 384.373 283.667 383.625 256.088Z" fill="white"/>
<path d="M181.395 291.478C181.395 291.962 181.423 292.435 181.479 292.919C184.166 316.837 203.351 362.121 256.743 362.121C310.927 362.121 326.452 316.139 327.104 291.821C327.104 291.708 327.12 291.599 327.12 291.478V180.379C327.12 173.379 321.465 167.7 314.491 167.7H230.206L276.797 193.038H301.882V291.264C301.653 296.423 298.684 336.786 256.747 336.786C215.035 336.786 207.626 297.747 206.621 290.663V218.252L181.636 204.971C181.495 205.738 181.395 206.521 181.395 207.336V291.478Z" fill="white"/>
<path d="M181.676 204.724C181.636 204.805 181.664 204.898 181.636 204.971L206.621 218.252L181.676 204.724Z" fill="white"/>
</g>
<defs>
<clipPath id="clip0">
<rect width="512" height="512" fill="white"/>
</clipPath>
</defs>
</svg>
