<?xml version="1.0" encoding="utf-8"?>
<!-- Generator: Adobe Illustrator 16.0.0, SVG Export Plug-In . SVG Version: 6.00 Build 0)  -->
<!DOCTYPE svg PUBLIC "-//W3C//DTD SVG 1.1//EN" "http://www.w3.org/Graphics/SVG/1.1/DTD/svg11.dtd">
<svg version="1.1" id="Layer_1" xmlns="http://www.w3.org/2000/svg" xmlns:xlink="http://www.w3.org/1999/xlink" x="0px" y="0px"
	 width="420px" height="126px" viewBox="0 0 420 126" enable-background="new 0 0 420 126" xml:space="preserve">
<rect width="420" height="126"/>
<path fill="#FFFFFF" d="M140.706,65.739c0,3.845-1.241,7.049-3.713,9.61c-2.482,2.56-5.611,3.842-9.379,3.842
	c-3.776,0-6.905-1.282-9.38-3.842c-2.475-2.563-3.712-5.767-3.712-9.61V48.857h3.952v17.379c0,2.498,0.907,4.643,2.742,6.431
	c1.825,1.784,3.958,2.683,6.398,2.683c2.44,0,4.57-0.897,6.398-2.683c1.828-1.788,2.742-3.933,2.742-6.431V48.857h3.952V65.739z"/>
<path fill="#FFFFFF" d="M175.398,78.465h-3.944V61.167c0-2.496-0.914-4.641-2.742-6.44s-3.958-2.704-6.402-2.704
	c-2.472,0-4.62,0.904-6.451,2.704c-1.828,1.8-2.742,3.944-2.742,6.44v17.298h-3.945V61.582c0-3.843,1.245-7.038,3.737-9.582
	c2.493-2.545,5.628-3.819,9.401-3.819c3.74,0,6.859,1.274,9.355,3.819c2.489,2.544,3.733,5.739,3.733,9.582V78.465z"/>
<path fill="#FFFFFF" d="M226.311,78.465h-4.104V60.287c0-2.288-0.661-4.244-1.978-5.871c-1.313-1.627-3.043-2.444-5.194-2.444
	c-2.181,0-4.06,0.71-5.634,2.131c-1.581,1.42-2.362,3.189-2.362,5.3v19.064h-4.154V59.403c0-2.11-0.796-3.88-2.367-5.3
	c-1.579-1.421-3.456-2.131-5.635-2.131c-2.152,0-3.86,0.807-5.144,2.417c-1.283,1.609-1.923,3.578-1.923,5.898v18.178h-4.1V60.754
	c0-3.707,1.055-6.683,3.164-8.938c1.976-2.113,4.57-3.305,7.791-3.586c4.296-0.341,7.721,1.494,10.289,5.509
	c2.564-4.015,5.986-5.85,10.285-5.509c3.22,0.281,5.831,1.473,7.847,3.586c2.144,2.256,3.22,5.231,3.22,8.938V78.465z"/>
<path fill="#FFFFFF" d="M265.109,63.609v14.855h-3.948v-4.627c-3.209,3.68-7.142,5.441-11.795,5.301
	c-4.07-0.141-7.537-1.715-10.398-4.724c-2.868-3.015-4.297-6.599-4.297-10.754c0-4.328,1.541-8.041,4.621-11.144
	c3.082-3.099,6.771-4.563,11.065-4.391c4.158,0.141,7.686,1.726,10.597,4.755C263.864,55.911,265.251,59.488,265.109,63.609z
	 M261.161,63.324c-0.065-3.124-1.179-5.801-3.329-8.02c-2.155-2.22-4.739-3.333-7.759-3.333c-3.157,0-5.851,1.113-8.067,3.333
	c-2.222,2.219-3.352,4.912-3.387,8.066c-0.067,3.128,0.963,5.858,3.097,8.204c2.138,2.342,4.711,3.585,7.734,3.727
	c3.257,0.133,6.041-1.002,8.354-3.41C260.113,69.475,261.23,66.62,261.161,63.324z"/>
<path fill="#FFFFFF" d="M285.057,52.233c-1.834,0.069-3.318,0.572-4.465,1.505c-1.146,0.938-1.92,1.753-2.334,2.438
	c-0.666,1.146-0.988,2.67-0.988,4.574v17.715h-4.158V48.857h3.688v4.21c0.833-1.597,2.057-2.827,3.688-3.691
	c1.492-0.799,3.011-1.162,4.57-1.09V52.233L285.057,52.233z"/>
<path fill="#FFFFFF" d="M308.794,69.639c0.211,2.664-0.724,4.979-2.804,6.93c-2.075,1.961-4.467,2.854-7.166,2.678
	c-2.495-0.174-4.581-1.178-6.262-3.018c-1.685-1.834-2.515-4.014-2.515-6.541h4.097v0.994c0,1.017,0.56,2.064,1.664,3.145
	c1.112,1.089,2.287,1.609,3.535,1.576c1.659-0.03,2.975-0.539,3.947-1.51c0.861-0.904,1.32-2.084,1.348-3.547
	c0.034-2.539-1.406-4.271-4.315-5.211l-3.474-1.104c-3.638-1.142-5.541-3.621-5.715-7.432c-0.105-2.287,0.668-4.242,2.32-5.874
	c1.645-1.624,3.639-2.495,5.967-2.597c2.012-0.101,3.896,0.546,5.653,1.947c1.753,1.402,2.694,3.143,2.836,5.223v0.879h-4.155
	v-0.681c0-1.049-0.438-1.901-1.318-2.549c-0.887-0.65-1.897-0.976-3.043-0.976c-1.11,0.037-2.067,0.435-2.884,1.201
	c-0.815,0.766-1.237,1.724-1.272,2.874c-0.139,2.125,1.125,3.637,3.793,4.54l3.429,1.149
	C306.402,63.09,308.516,65.723,308.794,69.639z"/>
<path fill="#FFFFFF" d="M342.876,78.465h-3.951V61.218c0-2.492-0.929-4.649-2.771-6.467c-1.856-1.814-4.022-2.693-6.497-2.623
	c-2.519,0.038-4.642,0.872-6.37,2.518c-1.729,1.648-2.596,3.733-2.596,6.26v17.561h-3.952V38.414h3.952v14.649
	c2.258-2.94,5.154-4.5,8.697-4.674c3.678-0.176,6.842,1.039,9.498,3.633c2.658,2.601,3.988,5.804,3.988,9.614L342.876,78.465
	L342.876,78.465z"/>
<path fill="#FFFFFF" d="M381.21,63.609v14.855h-3.951v-4.627c-3.2,3.68-7.138,5.441-11.793,5.301
	c-4.069-0.141-7.536-1.715-10.397-4.724c-2.868-3.015-4.297-6.599-4.297-10.754c0-4.328,1.541-8.041,4.621-11.144
	c3.086-3.099,6.77-4.563,11.066-4.391c4.154,0.141,7.684,1.726,10.596,4.755C379.964,55.911,381.342,59.488,381.21,63.609z
	 M377.258,63.324c-0.07-3.124-1.176-5.801-3.326-8.02c-2.158-2.22-4.74-3.333-7.764-3.333c-3.154,0-5.85,1.113-8.07,3.333
	c-2.215,2.219-3.348,4.912-3.382,8.066c-0.069,3.128,0.962,5.858,3.101,8.204c2.138,2.342,4.711,3.585,7.733,3.727
	c3.263,0.133,6.048-1.002,8.353-3.41C376.217,69.475,377.329,66.62,377.258,63.324z"/>
<path fill="#FFFFFF" d="M393.464,38.414h-3.942v40.051h3.942V38.414z"/>
<path fill="#FFFFFF" d="M89.557,59.633c-0.042-1.654-0.088-3.216-0.088-4.771V26h-59.73l11.587,6.275h41.871v22.586
	c0,1.643,0.046,3.321,0.091,4.941c0.166,6.152,0.337,12.512-1.955,17.834c-3.966,9.205-13.001,15.156-23.006,15.156
	c-12.188,0-22.366-7.832-25.327-19.488c-0.882-3.482-0.766-7.076-0.64-10.887c0.042-1.344,0.084-2.732,0.084-4.126V43.324
	l-6.272-3.318v18.288c0,1.292-0.046,2.63-0.084,3.922c-0.133,4.075-0.267,8.291,0.833,12.634
	c3.674,14.484,16.302,24.219,31.405,24.219c12.516,0,23.808-7.438,28.765-18.948C89.936,73.531,89.743,66.465,89.557,59.633z"/>
<path fill="#FFFFFF" d="M39.275,68.4c0,0.119,0.007,0.236,0.021,0.356C39.965,74.682,44.734,85.9,58.01,85.9
	c13.472,0,17.332-11.391,17.494-17.416c0-0.027,0.004-0.055,0.004-0.084V40.878c0-1.734-1.406-3.141-3.14-3.141H51.412l11.584,6.277
	h6.237v24.333c-0.057,1.277-0.795,11.276-11.222,11.276c-10.371,0-12.213-9.671-12.463-11.427V50.26l-6.212-3.29
	c-0.035,0.19-0.06,0.384-0.06,0.586V68.4z"/>
<path fill="#FFFFFF" d="M39.346,46.909c-0.01,0.02-0.003,0.043-0.01,0.061l6.212,3.29L39.346,46.909z"/>
</svg>
