<svg width="420" height="126" viewBox="0 0 420 126" fill="none" xmlns="http://www.w3.org/2000/svg">
<rect width="419.464" height="125.068" fill="white"/>
<path d="M140.706 65.7391C140.706 69.5841 139.465 72.7881 136.993 75.3491C134.511 77.9091 131.382 79.1921 127.614 79.1921C123.838 79.1921 120.709 77.9091 118.234 75.3491C115.759 72.7871 114.522 69.5831 114.522 65.7391V48.8571H118.474V66.2361C118.474 68.7351 119.381 70.8791 121.216 72.6671C123.041 74.4511 125.174 75.3501 127.614 75.3501C130.054 75.3501 132.184 74.4521 134.012 72.6671C135.84 70.8791 136.754 68.7351 136.754 66.2361V48.8571H140.706V65.7391Z" fill="#0A0A0A"/>
<path d="M175.398 78.4651H171.454V61.1671C171.454 58.6711 170.54 56.5261 168.712 54.7271C166.884 52.9281 164.754 52.0231 162.31 52.0231C159.838 52.0231 157.69 52.9271 155.859 54.7271C154.031 56.5271 153.117 58.6711 153.117 61.1671V78.4651H149.172V61.5821C149.172 57.7391 150.417 54.5441 152.909 52.0001C155.402 49.4551 158.537 48.1811 162.31 48.1811C166.05 48.1811 169.169 49.4551 171.665 52.0001C174.154 54.5441 175.398 57.7391 175.398 61.5821V78.4651Z" fill="#0A0A0A"/>
<path d="M226.311 78.4651H222.206V60.2871C222.206 57.9991 221.545 56.0431 220.228 54.4161C218.915 52.7891 217.185 51.9721 215.034 51.9721C212.854 51.9721 210.975 52.6821 209.4 54.1031C207.819 55.5231 207.038 57.2921 207.038 59.4031V78.4661H202.884V59.4031C202.884 57.2931 202.088 55.5231 200.517 54.1031C198.938 52.6821 197.061 51.9721 194.882 51.9721C192.73 51.9721 191.022 52.7791 189.738 54.3891C188.455 55.9981 187.815 57.9671 187.815 60.2871V78.4651H183.715V60.7541C183.715 57.0471 184.77 54.0711 186.879 51.8161C188.855 49.7031 191.449 48.5111 194.67 48.2301C198.966 47.8891 202.391 49.7241 204.959 53.7391C207.523 49.7241 210.946 47.8891 215.244 48.2301C218.464 48.5111 221.075 49.7031 223.091 51.8161C225.235 54.0721 226.311 57.0471 226.311 60.7541V78.4651Z" fill="#0A0A0A"/>
<path d="M265.11 63.6101V78.4641H261.161V73.8381C257.952 77.5181 254.02 79.2791 249.366 79.1391C245.296 78.9981 241.829 77.4231 238.968 74.4151C236.1 71.4001 234.671 67.8161 234.671 63.6611C234.671 59.3331 236.212 55.6201 239.292 52.5171C242.374 49.4181 246.062 47.9541 250.358 48.1261C254.516 48.2671 258.043 49.8521 260.954 52.8811C263.864 55.9111 265.251 59.4881 265.11 63.6101ZM261.161 63.3241C261.095 60.2001 259.983 57.5231 257.832 55.3041C255.677 53.0841 253.093 51.9711 250.073 51.9711C246.916 51.9711 244.222 53.0841 242.006 55.3041C239.784 57.5231 238.654 60.2161 238.619 63.3701C238.552 66.4981 239.582 69.2291 241.716 71.5741C243.854 73.9161 246.427 75.1591 249.45 75.3001C252.707 75.4341 255.491 74.2981 257.804 71.8901C260.113 69.4751 261.231 66.6201 261.161 63.3241Z" fill="#0A0A0A"/>
<path d="M285.056 52.2331C283.222 52.3021 281.738 52.8051 280.592 53.7381C279.446 54.6761 278.672 55.4911 278.258 56.1761C277.592 57.3221 277.269 58.8461 277.269 60.7501V78.4641H273.112V48.8571H276.799V53.0671C277.632 51.4701 278.856 50.2401 280.487 49.3761C281.978 48.5771 283.497 48.2141 285.057 48.2861V52.2331H285.056Z" fill="#0A0A0A"/>
<path d="M308.794 69.6381C309.005 72.3021 308.071 74.6171 305.99 76.5691C303.915 78.5291 301.524 79.4221 298.824 79.2461C296.329 79.0721 294.243 78.0681 292.562 76.2291C290.878 74.3941 290.048 72.2151 290.048 69.6881H294.144V70.6811C294.144 71.6981 294.704 72.7461 295.808 73.8261C296.921 74.9151 298.096 75.4351 299.344 75.4021C301.003 75.3721 302.319 74.8631 303.291 73.8921C304.152 72.9881 304.611 71.8081 304.639 70.3451C304.673 67.8071 303.233 66.0741 300.323 65.1351L296.849 64.0311C293.212 62.8891 291.308 60.4101 291.135 56.5991C291.03 54.3121 291.803 52.3571 293.455 50.7251C295.1 49.1011 297.094 48.2301 299.422 48.1281C301.433 48.0271 303.318 48.6741 305.075 50.0751C306.828 51.4771 307.77 53.2181 307.911 55.2981V56.1771H303.756V55.4961C303.756 54.4471 303.318 53.5951 302.438 52.9471C301.551 52.2971 300.54 51.9711 299.394 51.9711C298.284 52.0081 297.327 52.4061 296.511 53.1721C295.696 53.9381 295.274 54.8961 295.238 56.0461C295.1 58.1711 296.363 59.6831 299.031 60.5861L302.46 61.7351C306.403 63.0901 308.516 65.7221 308.794 69.6381Z" fill="#0A0A0A"/>
<path d="M342.876 78.4651H338.925V61.2181C338.925 58.7261 337.996 56.5691 336.154 54.7511C334.298 52.9371 332.132 52.0581 329.657 52.1281C327.139 52.1661 325.016 53.0001 323.287 54.6461C321.558 56.2941 320.691 58.3791 320.691 60.9061V78.4661H316.739V38.4141H320.691V53.0631C322.949 50.1231 325.846 48.5631 329.389 48.3891C333.066 48.2131 336.23 49.4281 338.887 52.0221C341.545 54.6231 342.875 57.8261 342.875 61.6361V78.4651H342.876Z" fill="#0A0A0A"/>
<path d="M381.21 63.6101V78.4641H377.259V73.8381C374.059 77.5181 370.121 79.2791 365.466 79.1391C361.397 78.9981 357.929 77.4231 355.069 74.4151C352.2 71.4001 350.771 67.8161 350.771 63.6611C350.771 59.3331 352.312 55.6201 355.392 52.5171C358.478 49.4181 362.162 47.9541 366.459 48.1261C370.613 48.2671 374.143 49.8521 377.054 52.8811C379.964 55.9111 381.342 59.4881 381.21 63.6101ZM377.258 63.3241C377.188 60.2001 376.082 57.5231 373.931 55.3041C371.774 53.0841 369.192 51.9711 366.168 51.9711C363.013 51.9711 360.318 53.0841 358.097 55.3041C355.883 57.5231 354.75 60.2161 354.716 63.3701C354.646 66.4981 355.678 69.2291 357.816 71.5741C359.954 73.9161 362.527 75.1591 365.55 75.3001C368.813 75.4341 371.597 74.2981 373.903 71.8901C376.217 69.4751 377.329 66.6201 377.258 63.3241Z" fill="#0A0A0A"/>
<path d="M393.464 38.4141H389.521V78.4651H393.464V38.4141Z" fill="#0A0A0A"/>
<path d="M89.5566 59.633C89.5146 57.979 89.4686 56.417 89.4686 54.862V26H29.7386L41.3256 32.275H83.1966V54.861C83.1966 56.504 83.2426 58.182 83.2876 59.802C83.4536 65.954 83.6246 72.315 81.3326 77.637C77.3666 86.842 68.3316 92.793 58.3266 92.793C46.1386 92.793 35.9606 84.961 32.9996 73.304C32.1176 69.823 32.2336 66.229 32.3596 62.418C32.4016 61.074 32.4436 59.686 32.4436 58.292V43.324L26.1716 40.006V58.294C26.1716 59.586 26.1256 60.924 26.0876 62.216C25.9546 66.291 25.8206 70.507 26.9206 74.85C30.5946 89.334 43.2226 99.068 58.3256 99.068C70.8416 99.068 82.1336 91.63 87.0906 80.12C89.9356 73.531 89.7426 66.465 89.5566 59.633Z" fill="#0A0A0A"/>
<path d="M39.2756 68.4C39.2756 68.52 39.2826 68.637 39.2966 68.757C39.9646 74.682 44.7346 85.9 58.0096 85.9C71.4816 85.9 75.3416 74.509 75.5036 68.485C75.5036 68.457 75.5076 68.43 75.5076 68.4V40.878C75.5076 39.144 74.1016 37.737 72.3676 37.737H51.4116L62.9956 44.014H69.2326V68.347C69.1756 69.625 68.4376 79.624 58.0106 79.624C47.6396 79.624 45.7976 69.953 45.5476 68.198V50.26L39.3356 46.97C39.3006 47.16 39.2756 47.354 39.2756 47.556V68.4Z" fill="#0A0A0A"/>
<path d="M39.3456 46.909C39.3356 46.929 39.3426 46.952 39.3356 46.97L45.5476 50.26L39.3456 46.909Z" fill="#0A0A0A"/>
</svg>
