<svg width="420" height="126" viewBox="0 0 420 126" fill="none" xmlns="http://www.w3.org/2000/svg">
<path d="M140.706 65.741C140.706 69.586 139.465 72.79 136.993 75.351C134.511 77.911 131.382 79.194 127.614 79.194C123.838 79.194 120.709 77.911 118.234 75.351C115.759 72.789 114.522 69.585 114.522 65.741V48.859H118.474V66.238C118.474 68.737 119.381 70.881 121.216 72.669C123.041 74.453 125.174 75.352 127.614 75.352C130.054 75.352 132.184 74.454 134.012 72.669C135.84 70.881 136.754 68.737 136.754 66.238V48.859H140.706V65.741Z" fill="#0A0A0A"/>
<path d="M175.398 78.467H171.454V61.169C171.454 58.673 170.54 56.528 168.712 54.729C166.884 52.93 164.754 52.025 162.31 52.025C159.838 52.025 157.69 52.929 155.859 54.729C154.031 56.529 153.117 58.673 153.117 61.169V78.467H149.172V61.584C149.172 57.741 150.417 54.546 152.909 52.002C155.402 49.457 158.537 48.183 162.31 48.183C166.05 48.183 169.169 49.457 171.665 52.002C174.154 54.546 175.398 57.741 175.398 61.584V78.467Z" fill="#0A0A0A"/>
<path d="M226.311 78.467H222.206V60.289C222.206 58.001 221.545 56.045 220.228 54.418C218.915 52.791 217.185 51.974 215.034 51.974C212.854 51.974 210.975 52.684 209.4 54.105C207.819 55.525 207.038 57.294 207.038 59.405V78.468H202.884V59.405C202.884 57.295 202.088 55.525 200.517 54.105C198.938 52.684 197.061 51.974 194.882 51.974C192.73 51.974 191.022 52.781 189.738 54.391C188.455 56 187.815 57.969 187.815 60.289V78.467H183.715V60.756C183.715 57.049 184.77 54.073 186.879 51.818C188.855 49.705 191.449 48.513 194.67 48.232C198.966 47.891 202.391 49.726 204.959 53.741C207.523 49.726 210.946 47.891 215.244 48.232C218.464 48.513 221.075 49.705 223.091 51.818C225.235 54.074 226.311 57.049 226.311 60.756V78.467Z" fill="#0A0A0A"/>
<path d="M265.11 63.612V78.466H261.161V73.84C257.952 77.52 254.02 79.281 249.366 79.141C245.296 79 241.829 77.425 238.968 74.417C236.1 71.402 234.671 67.818 234.671 63.663C234.671 59.335 236.212 55.622 239.292 52.519C242.374 49.42 246.062 47.956 250.358 48.128C254.516 48.269 258.043 49.854 260.954 52.883C263.864 55.913 265.251 59.49 265.11 63.612ZM261.161 63.326C261.095 60.202 259.983 57.525 257.832 55.306C255.677 53.086 253.093 51.973 250.073 51.973C246.916 51.973 244.222 53.086 242.006 55.306C239.784 57.525 238.654 60.218 238.619 63.372C238.552 66.5 239.582 69.231 241.716 71.576C243.854 73.918 246.427 75.161 249.45 75.302C252.707 75.436 255.491 74.3 257.804 71.892C260.113 69.477 261.231 66.622 261.161 63.326Z" fill="#0A0A0A"/>
<path d="M285.056 52.235C283.222 52.304 281.738 52.807 280.592 53.74C279.446 54.678 278.672 55.493 278.258 56.178C277.592 57.324 277.269 58.848 277.269 60.752V78.466H273.112V48.859H276.799V53.069C277.632 51.472 278.856 50.242 280.487 49.378C281.978 48.579 283.497 48.216 285.057 48.288V52.235H285.056Z" fill="#0A0A0A"/>
<path d="M308.794 69.64C309.005 72.304 308.071 74.619 305.99 76.571C303.915 78.531 301.524 79.424 298.824 79.248C296.329 79.074 294.243 78.07 292.562 76.231C290.878 74.396 290.048 72.217 290.048 69.69H294.144V70.683C294.144 71.7 294.704 72.748 295.808 73.828C296.921 74.917 298.096 75.437 299.344 75.404C301.003 75.374 302.319 74.865 303.291 73.894C304.152 72.99 304.611 71.81 304.639 70.347C304.673 67.809 303.233 66.076 300.323 65.137L296.849 64.033C293.212 62.891 291.308 60.412 291.135 56.601C291.03 54.314 291.803 52.359 293.455 50.727C295.1 49.103 297.094 48.232 299.422 48.13C301.433 48.029 303.318 48.676 305.075 50.077C306.828 51.479 307.77 53.22 307.911 55.3V56.179H303.756V55.498C303.756 54.449 303.318 53.597 302.438 52.949C301.551 52.299 300.54 51.973 299.394 51.973C298.284 52.01 297.327 52.408 296.511 53.174C295.696 53.94 295.274 54.898 295.238 56.048C295.1 58.173 296.363 59.685 299.031 60.588L302.46 61.737C306.403 63.092 308.516 65.724 308.794 69.64Z" fill="#0A0A0A"/>
<path d="M342.876 78.467H338.925V61.22C338.925 58.728 337.996 56.571 336.154 54.753C334.298 52.939 332.132 52.06 329.657 52.13C327.139 52.168 325.016 53.002 323.287 54.648C321.558 56.296 320.691 58.381 320.691 60.908V78.468H316.739V38.416H320.691V53.065C322.949 50.125 325.846 48.565 329.389 48.391C333.066 48.215 336.23 49.43 338.887 52.024C341.545 54.625 342.875 57.828 342.875 61.638V78.467H342.876Z" fill="#0A0A0A"/>
<path d="M381.21 63.612V78.466H377.259V73.84C374.059 77.52 370.121 79.281 365.466 79.141C361.397 79 357.929 77.425 355.069 74.417C352.2 71.402 350.771 67.818 350.771 63.663C350.771 59.335 352.312 55.622 355.392 52.519C358.478 49.42 362.162 47.956 366.459 48.128C370.613 48.269 374.143 49.854 377.054 52.883C379.964 55.913 381.342 59.49 381.21 63.612ZM377.258 63.326C377.188 60.202 376.082 57.525 373.931 55.306C371.774 53.086 369.192 51.973 366.168 51.973C363.013 51.973 360.318 53.086 358.097 55.306C355.883 57.525 354.75 60.218 354.716 63.372C354.646 66.5 355.678 69.231 357.816 71.576C359.954 73.918 362.527 75.161 365.55 75.302C368.813 75.436 371.597 74.3 373.903 71.892C376.217 69.477 377.329 66.622 377.258 63.326Z" fill="#0A0A0A"/>
<path d="M393.464 38.416H389.521V78.467H393.464V38.416Z" fill="#0A0A0A"/>
<path d="M89.5566 59.6349C89.5146 57.9809 89.4686 56.419 89.4686 54.864V26.002H29.7386L41.3256 32.2769H83.1966V54.863C83.1966 56.506 83.2426 58.1839 83.2876 59.8039C83.4536 65.9559 83.6246 72.3169 81.3326 77.6389C77.3666 86.8439 68.3316 92.795 58.3266 92.795C46.1386 92.795 35.9606 84.963 32.9996 73.306C32.1176 69.825 32.2336 66.231 32.3596 62.42C32.4016 61.076 32.4436 59.688 32.4436 58.294V43.326L26.1716 40.0079V58.296C26.1716 59.588 26.1256 60.9259 26.0876 62.2179C25.9546 66.2929 25.8206 70.5089 26.9206 74.8519C30.5946 89.3359 43.2226 99.0699 58.3256 99.0699C70.8416 99.0699 82.1336 91.6319 87.0906 80.1219C89.9356 73.5329 89.7426 66.4669 89.5566 59.6349Z" fill="#0A0A0A"/>
<path d="M39.2756 68.4019C39.2756 68.5219 39.2826 68.639 39.2966 68.759C39.9646 74.684 44.7346 85.9019 58.0096 85.9019C71.4816 85.9019 75.3416 74.511 75.5036 68.487C75.5036 68.459 75.5076 68.4319 75.5076 68.4019V40.88C75.5076 39.146 74.1016 37.739 72.3676 37.739H51.4116L62.9956 44.016H69.2326V68.349C69.1756 69.627 68.4376 79.6259 58.0106 79.6259C47.6396 79.6259 45.7976 69.955 45.5476 68.2V50.2619L39.3356 46.9719C39.3006 47.1619 39.2756 47.356 39.2756 47.558V68.4019Z" fill="#0A0A0A"/>
<path d="M39.3456 46.9109C39.3356 46.9309 39.3426 46.9539 39.3356 46.9719L45.5476 50.2619L39.3456 46.9109Z" fill="#0A0A0A"/>
</svg>
